<?xml version="1.0" encoding="UTF-8"?>
<svg xmlns="http://www.w3.org/2000/svg" width="119" height="64" viewBox="0 0 119 64" fill="none">
  <g clip-path="url(#clip0_8133_33688)">
    <path d="M67.2412 42.4629H62.4375V62.8853H67.2412V42.4629Z" fill="#3D408A"></path>
    <path d="M77.1211 51.4449C76.7601 51.4472 76.4129 51.3062 76.1556 51.0528C75.8983 50.7993 75.752 50.4542 75.7486 50.093V44.961C75.7995 43.0497 78.6419 43.0454 78.6927 44.961V48.8895H81.1878V46.1899C80.9717 41.007 73.4696 41.007 73.2536 46.1899V50.9703C73.2511 51.3374 73.3503 51.6981 73.5402 52.0123C73.7302 52.3265 74.0034 52.5819 74.3295 52.7502C73.9895 52.9068 73.7048 53.1626 73.5128 53.4841C73.3207 53.8055 73.2304 54.1776 73.2536 54.5513V59.2766C73.4696 64.4637 80.9759 64.4637 81.1878 59.2766V53.9156H82.8822V51.4449H77.1211ZM77.2228 61.9507C76.8348 61.9529 76.4617 61.8012 76.1854 61.5287C75.909 61.2562 75.752 60.8852 75.7486 60.4971V55.2675C75.7503 55.0883 75.7872 54.9112 75.8573 54.7463C75.9274 54.5813 76.0293 54.4318 76.1571 54.3063C76.2849 54.1808 76.4362 54.0816 76.6024 54.0146C76.7685 53.9476 76.9462 53.9139 77.1253 53.9156H78.6927V60.5013C78.6893 60.8883 78.5327 61.2582 78.2572 61.5299C77.9816 61.8016 77.6097 61.9529 77.2228 61.9507Z" fill="#3D408A"></path>
    <path d="M5.01203 62.8858C5.01203 53.8421 4.42321 41.548 8.72707 34.3775C9.24388 33.4621 9.9979 33.479 10.5316 34.4029C14.1323 40.7089 14.4119 51.0409 14.2128 62.8858H19.2114V54.2829C19.2114 42.4168 14.3441 36.2125 11.5271 33.6062C11.0201 33.1279 10.3511 32.8591 9.65424 32.8536C8.9574 32.8481 8.28423 33.1063 7.76971 33.5765C-0.388978 41.2047 -0.0161994 52.7869 0.00921712 62.8858H5.01203Z" fill="#3D408A"></path>
    <path d="M30.2641 62.8884V48.7635C30.2641 46.3988 32.0644 44.4832 34.2884 44.4832C36.5123 44.4832 38.2999 46.3945 38.2999 48.755V62.8884H43.3536V48.7635C43.3536 46.3988 45.1539 44.4832 47.3736 44.4832C49.5933 44.4832 51.3894 46.3945 51.3894 48.755V62.8884H56.4388V51.9419C56.4812 43.4238 46.5222 38.957 40.8246 45.28C35.1313 38.957 25.1723 43.428 25.2189 51.9419V62.8884H30.2641Z" fill="#3D408A"></path>
    <path d="M92.8168 62.8866V39.2603C92.8168 38.1925 93.2407 37.1685 93.9954 36.4135C94.7501 35.6585 95.7737 35.2343 96.841 35.2343C97.9084 35.2343 98.9319 35.6585 99.6866 36.4135C100.441 37.1685 100.865 38.1925 100.865 39.2603V62.895H105.919V39.2603C105.919 38.1925 106.343 37.1685 107.098 36.4135C107.852 35.6585 108.876 35.2343 109.943 35.2343C111.011 35.2343 112.034 35.6585 112.789 36.4135C113.544 37.1685 113.968 38.1925 113.968 39.2603V62.895H119.017V42.4133C119.059 33.9672 109.1 29.5386 103.407 35.8064C97.7094 29.5343 87.7546 33.9672 87.797 42.4133V62.8866H92.8168Z" fill="#3D408A"></path>
    <path d="M9.61283 49.6745C10.6071 49.6745 11.4132 48.8681 11.4132 47.8734C11.4132 46.8786 10.6071 46.0723 9.61283 46.0723C8.61854 46.0723 7.8125 46.8786 7.8125 47.8734C7.8125 48.8681 8.61854 49.6745 9.61283 49.6745Z" fill="#8DC63F"></path>
    <path d="M64.8237 38.8628C66.4824 38.8628 67.8271 37.5176 67.8271 35.8582C67.8271 34.1988 66.4824 32.8535 64.8237 32.8535C63.165 32.8535 61.8203 34.1988 61.8203 35.8582C61.8203 37.5176 63.165 38.8628 64.8237 38.8628Z" fill="#5056A5"></path>
    <path d="M71.6241 25.6263C73.6127 25.6263 75.2248 24.0135 75.2248 22.0241C75.2248 20.0346 73.6127 18.4219 71.6241 18.4219C69.6355 18.4219 68.0234 20.0346 68.0234 22.0241C68.0234 24.0135 69.6355 25.6263 71.6241 25.6263Z" fill="#996598"></path>
    <path d="M84.9991 14.8631C87.3199 14.8631 89.2013 12.9809 89.2013 10.6591C89.2013 8.33727 87.3199 6.45508 84.9991 6.45508C82.6783 6.45508 80.7969 8.33727 80.7969 10.6591C80.7969 12.9809 82.6783 14.8631 84.9991 14.8631Z" fill="#D24D70"></path>
    <path d="M103.421 9.61349C106.074 9.61349 108.225 7.46187 108.225 4.80772C108.225 2.15357 106.074 0.00195312 103.421 0.00195312C100.768 0.00195312 98.6172 2.15357 98.6172 4.80772C98.6172 7.46187 100.768 9.61349 103.421 9.61349Z" fill="#ED1B2F"></path>
    <path d="M17.6129 34.4072C18.6634 34.4072 19.5149 33.5553 19.5149 32.5044C19.5149 31.4535 18.6634 30.6016 17.6129 30.6016C16.5625 30.6016 15.7109 31.4535 15.7109 32.5044C15.7109 33.5553 16.5625 34.4072 17.6129 34.4072Z" fill="#35AA94"></path>
    <path d="M28.5073 27.0634C29.6677 27.0634 30.6084 26.1223 30.6084 24.9614C30.6084 23.8005 29.6677 22.8594 28.5073 22.8594C27.3469 22.8594 26.4062 23.8005 26.4062 24.9614C26.4062 26.1223 27.3469 27.0634 28.5073 27.0634Z" fill="#1EA0CA"></path>
    <path d="M41.6597 24.9952C42.9862 24.9952 44.0615 23.9194 44.0615 22.5923C44.0615 21.2653 42.9862 20.1895 41.6597 20.1895C40.3332 20.1895 39.2578 21.2653 39.2578 22.5923C39.2578 23.9194 40.3332 24.9952 41.6597 24.9952Z" fill="#0088CB"></path>
    <path d="M54.9448 28.7923C56.4374 28.7923 57.6474 27.5818 57.6474 26.0885C57.6474 24.5953 56.4374 23.3848 54.9448 23.3848C53.4522 23.3848 52.2422 24.5953 52.2422 26.0885C52.2422 27.5818 53.4522 28.7923 54.9448 28.7923Z" fill="#3777BC"></path>
  </g>
  <defs>
    <clipPath id="clip0_8133_33688">
      <rect width="119" height="63.1615" fill="white"></rect>
    </clipPath>
  </defs>
</svg>
