<svg width="94" height="89" viewBox="0 0 94 89" fill="none" xmlns="http://www.w3.org/2000/svg">
<g id="Component 50">
<circle id="Switch" cx="25.3749" cy="31.4293" r="24.951" fill="#F4475C"/>
<path id="Vector" d="M62.8939 63.4829C62.1912 60.6627 59.6369 58.568 56.6015 58.568H42.4496C35.6046 58.568 29.1652 61.2349 24.3009 66.0992L24.3008 66.099L24.2919 66.1084L21.8575 68.6721C21.8575 68.6721 21.8575 68.6721 21.8574 68.6721M62.8939 63.4829L21.8574 68.6721M62.8939 63.4829L68.8617 58.0479C70.1676 56.7445 72.0176 56.059 73.9253 56.219C75.8255 56.3723 77.557 57.3564 78.6826 58.9193C80.5234 61.4738 80.1174 65.1354 77.7995 67.4482L77.3088 67.9378L77.2899 67.8999L64.5573 79.3345L64.5571 79.3347C59.8432 83.5628 53.7615 85.8945 47.431 85.8945H23.0866C22.1497 85.8945 21.3897 85.1344 21.3897 84.1976C21.3897 83.2608 22.1497 82.5007 23.0866 82.5007H47.431C52.9235 82.5007 58.2001 80.4805 62.2902 76.8095C62.2902 76.8094 62.2902 76.8094 62.2902 76.8094L75.4551 64.9912C76.5849 63.8529 76.7705 62.0722 75.9277 60.8997C75.3724 60.1301 74.5693 59.6725 73.6532 59.5977C72.748 59.5363 71.8536 59.8547 71.2117 60.4945L71.2038 60.5024L71.1955 60.51L61.2014 69.6168C60.0281 70.7983 58.3999 71.5344 56.6015 71.5344H44.6327C43.6959 71.5344 42.9359 70.7743 42.9359 69.8375C42.9359 68.9007 43.6959 68.1406 44.6327 68.1406H56.6015C57.4171 68.1406 58.1601 67.822 58.7138 67.3023C58.7489 67.2627 58.789 67.2204 58.8337 67.1787L58.8425 67.1705L58.8426 67.1706L58.8683 67.1477C59.3795 66.5965 59.6922 65.8598 59.6922 65.05C59.6922 63.3465 58.305 61.9593 56.6015 61.9593H42.4496C36.5115 61.9593 30.929 64.27 26.7265 68.4678L24.3214 71.0016C24.3209 71.0022 24.3203 71.0028 24.3198 71.0034C23.6744 71.6946 22.5952 71.7114 21.9213 71.069C21.2387 70.4254 21.2135 69.35 21.8574 68.6721M62.8939 63.4829L21.8574 68.6721M37.7906 27.4527L37.7906 27.4528C41.6319 27.7233 44.744 28.5849 47.1586 30.1567C49.2397 31.5113 50.7744 33.3751 51.8118 35.7793C52.85 33.3751 54.3847 31.5113 56.4658 30.1567C58.8804 28.5849 61.9925 27.7233 65.835 27.4528L65.8461 27.452L65.8461 27.4521C67.0192 27.3956 68.1916 27.8017 69.0483 28.6584C69.896 29.5061 70.341 30.6791 70.2539 31.8746C69.8852 37.1047 68.4198 40.9832 65.5669 43.5834C62.8029 46.1026 58.8172 47.3472 53.5085 47.5587V50.6827C53.5085 51.6195 52.7484 52.3795 51.8116 52.3795C50.8748 52.3795 50.1147 51.6195 50.1147 50.6827V47.5587C44.806 47.3472 40.8204 46.1025 38.0563 43.5831C35.2034 40.9826 33.738 37.1034 33.3693 31.872L37.7906 27.4527ZM37.7906 27.4527L37.7835 27.4524M37.7906 27.4527L37.7835 27.4524M37.7835 27.4524C36.5824 27.3849 35.4264 27.8042 34.5743 28.659C33.727 29.5091 33.2847 30.6794 33.3693 31.8718L37.7835 27.4524ZM66.8676 31.6296L66.8675 31.6317C66.5557 36.0766 65.4067 39.1093 63.2434 41.0781C61.1556 42.9781 58.0365 43.9671 53.5445 44.1624C53.7409 39.6704 54.7298 36.5518 56.6299 34.4643C58.5987 32.3012 61.6314 31.1522 66.0776 30.8393L66.1013 30.8376L66.1124 30.8358L66.1263 30.8357C66.3154 30.8357 66.5029 30.912 66.6488 31.0579C66.8055 31.2146 66.8828 31.4252 66.8676 31.6296ZM36.7558 31.6316L36.7556 31.6294C36.7405 31.428 36.8174 31.2174 36.9744 31.0603C37.1169 30.9179 37.3043 30.8399 37.4905 30.8382L37.4985 30.8388L37.4996 30.8389C37.5062 30.8394 37.5179 30.8404 37.5304 30.8412C37.5391 30.8417 37.5495 30.8423 37.5611 30.8426C41.9989 31.1557 45.0277 32.3046 46.9945 34.4658C48.8946 36.5536 49.8835 39.6727 50.0789 44.1647C45.5868 43.9683 42.4683 42.9793 40.3808 41.0793C38.2177 39.1105 37.0687 36.0778 36.7558 31.6316Z" fill="#2A2B6B" stroke="#2A2B6B"/>
</g>
</svg>
