<?xml version="1.0" encoding="UTF-8"?>
<svg xmlns="http://www.w3.org/2000/svg" width="94" height="89" viewBox="0 0 94 89" fill="none">
  <circle cx="25.451" cy="31.4295" r="24.951" fill="#F4475C"></circle>
  <path d="M74.1925 51.1583C74.1925 66.2202 61.9824 78.4303 46.9205 78.4303C31.8585 78.4303 19.6484 66.2202 19.6484 51.1583C19.6484 36.0963 31.8585 23.8862 46.9205 23.8862C61.9824 23.8862 74.1925 36.0963 74.1925 51.1583Z" stroke="#2A2B6B" stroke-width="5" stroke-linecap="round" stroke-linejoin="round"></path>
  <path d="M64.331 51.1582C64.331 60.7722 56.5373 68.5659 46.9233 68.5659C37.3093 68.5659 29.5156 60.7722 29.5156 51.1582C29.5156 41.5442 37.3093 33.7505 46.9233 33.7505C56.5373 33.7505 64.331 41.5442 64.331 51.1582Z" stroke="#2A2B6B" stroke-width="5" stroke-linecap="round" stroke-linejoin="round"></path>
  <path d="M54.4617 51.1581C54.4617 55.3241 51.0844 58.7014 46.9183 58.7014C42.7523 58.7014 39.375 55.3241 39.375 51.1581C39.375 46.992 42.7523 43.6147 46.9183 43.6147C51.0844 43.6147 54.4617 46.992 54.4617 51.1581Z" stroke="#2A2B6B" stroke-width="5" stroke-linecap="round" stroke-linejoin="round"></path>
</svg>
