<?xml version="1.0" encoding="UTF-8"?>
<svg xmlns="http://www.w3.org/2000/svg" width="101" height="101" viewBox="0 0 101 101" fill="none">
  <circle cx="19" cy="19.5" r="19" fill="#ED1B2F"></circle>
  <circle cx="19" cy="19.5" r="19" fill="#ED1B2F"></circle>
  <path d="M24.8758 60.7363L9 73.838L28 98.2188L29.5136 96.8419C34.2777 92.5085 40.4863 90.1071 46.9264 90.1071H59.9146C67.5417 90.1071 74.8641 87.1141 80.3074 81.7716L96.1447 66.2276C99.0734 63.3531 99.0734 58.6348 96.1447 55.7603C93.2924 52.9608 88.7236 52.9608 85.8712 55.7603L75.61 65.8316C71.4999 69.8655 65.971 72.1255 60.212 72.1255H48.3882C47.8351 72.1255 47.3867 71.6771 47.3867 71.1239C47.3867 70.5708 47.8351 70.1224 48.3882 70.1224H63.6477C67.1945 70.1224 70.0698 67.2472 70.0698 63.7004C70.0698 60.1536 67.1945 57.2784 63.6478 57.2784H34.4984C30.9866 57.2784 27.5843 58.501 24.8758 60.7363Z" stroke="#2A2B6B" stroke-width="3.84" stroke-linecap="round" stroke-linejoin="round"></path>
  <path d="M52.1048 48.9283C52.7711 37.8273 61.383 15.6167 90.5002 15.5818C89.686 29.1498 80.8671 54.8143 52.1048 48.9283Z" fill="#2A2B6B" stroke="#2A2B6B" stroke-width="3.88214"></path>
  <path d="M49.6592 48.8624C49.2104 41.3868 43.411 26.4297 23.803 26.4063C24.3512 35.5432 30.2901 52.8261 49.6592 48.8624Z" fill="#2A2B6B" stroke="#2A2B6B" stroke-width="3.88214"></path>
</svg>
