<?xml version="1.0" encoding="UTF-8"?>
<svg xmlns="http://www.w3.org/2000/svg" width="95" height="99" viewBox="0 0 95 99" fill="none">
  <circle cx="19" cy="19.5" r="19" fill="#ED1B2F"></circle>
  <path d="M51.5494 88.0655C52.2072 77.1067 60.7089 55.1804 89.4532 55.146C88.6494 68.5403 79.9434 93.8761 51.5494 88.0655Z" fill="#2A2B6B" stroke="#2A2B6B" stroke-width="3.84" stroke-linecap="round" stroke-linejoin="round"></path>
  <path d="M51.0209 88.0655C50.3631 77.1067 41.8615 55.1804 13.1171 55.146C13.9209 68.5403 22.6269 93.8761 51.0209 88.0655Z" stroke="#2A2B6B" stroke-width="3.84" stroke-linecap="round" stroke-linejoin="round"></path>
  <rect x="49.4531" y="47.5" width="4" height="42" fill="#2A2B6B"></rect>
  <path d="M36.9531 40.5C36.9531 31.8272 44.211 22.1825 52.0728 16.9998M52.0728 16.9998C58.7148 12.6213 66.1447 9.99984 70.9531 9.99984V28.2498C70.9531 38.8813 62.3346 47.4998 51.7031 47.4998V47.4998C41.0716 47.4998 32.4531 38.8813 32.4531 28.2498V9.99984C36.5329 9.66651 46.1685 10.5998 52.0728 16.9998Z" stroke="#2A2B6B" stroke-width="3.84" stroke-linecap="round" stroke-linejoin="round"></path>
  <path d="M41.4531 11C41.4531 8 49.2531 2.5 52.4531 2.5C55.4531 2.5 62.4531 8.3 62.4531 11.5" stroke="#2A2B6B" stroke-width="3.84" stroke-linecap="round" stroke-linejoin="round"></path>
</svg>
