<?xml version="1.0" encoding="UTF-8"?>
<svg xmlns="http://www.w3.org/2000/svg" width="95" height="92" viewBox="0 0 95 92" fill="none">
  <circle cx="19" cy="19.5" r="19" fill="#ED1B2F"></circle>
  <path d="M41 37.5C50.0386 45.592 51.6433 70.205 51.3158 81.5C51.3158 71.8908 54.8526 52.6724 69 52.6724" stroke="#2A2B6B" stroke-width="3.84" stroke-linecap="round" stroke-linejoin="round"></path>
  <path d="M60.0374 55.6742C59.5284 48.9187 64.0082 37.3378 86 45.0584C85.3214 50.0447 80.8078 60.114 68.1829 60.5" stroke="#2A2B6B" stroke-width="3.84" stroke-linecap="round"></path>
  <path d="M46.459 46.6533C40.6995 48.7787 26.9443 48.2228 18 28.9961C24.2678 25.5628 39.2426 21.639 49 33.4104" stroke="#2A2B6B" stroke-width="3.84" stroke-linecap="round"></path>
  <path d="M19.816 89.2301C35.2903 69.8871 64.7097 69.8871 80.184 89.2301C80.9159 90.1449 80.2646 91.5 79.0931 91.5H20.9069C19.7354 91.5 19.0841 90.1449 19.816 89.2301Z" fill="#2A2B6B"></path>
</svg>
