<?xml version="1.0" encoding="UTF-8"?>
<svg xmlns="http://www.w3.org/2000/svg" width="95" height="87" viewBox="0 0 95 87" fill="none">
  <circle cx="19" cy="19.5" r="19" fill="#ED1B2F"></circle>
  <path d="M77 5.5H39.7203C39.2547 5.5 38.8038 5.6624 38.4451 5.95921L25.2249 16.9001C24.7658 17.2801 24.5 17.845 24.5 18.4409V79C24.5 80.1046 25.3954 81 26.5 81H77C78.1046 81 79 80.1046 79 79V7.5C79 6.39543 78.1046 5.5 77 5.5Z" stroke="#2A2B6B" stroke-width="3"></path>
  <path d="M24.3438 69.5C24.3438 67.9182 25.5669 67.0155 26.6499 67.2752C27.4473 67.4663 28.2303 67.7203 28.9914 68.0355C30.8909 68.8223 32.6168 69.9756 34.0706 71.4294C35.5245 72.8832 36.6777 74.6091 37.4645 76.5086C37.7797 77.2697 38.0337 78.0527 38.2248 78.8501C38.4845 79.9331 37.5818 81.1562 36 81.1562L27 81.1562C25.533 81.1562 24.3438 79.967 24.3438 78.5L24.3438 69.5Z" fill="#2A2B6B" stroke="#2A2B6B" stroke-width="2.68752"></path>
  <path d="M67 81.1562C65.4182 81.1562 64.5155 79.9331 64.7752 78.8501C64.9663 78.0527 65.2203 77.2697 65.5355 76.5086C66.3223 74.6091 67.4756 72.8832 68.9294 71.4294C70.3832 69.9755 72.1091 68.8223 74.0086 68.0355C74.7697 67.7203 75.5527 67.4663 76.3501 67.2752C77.4331 67.0155 78.6562 67.9182 78.6562 69.5L78.6562 78.5C78.6562 79.967 77.467 81.1562 76 81.1562L67 81.1562Z" fill="#2A2B6B" stroke="#2A2B6B" stroke-width="2.68752"></path>
  <path d="M33.5 43L45.329 29.3512C45.9958 28.5817 47.1343 28.4361 47.9734 29.013L53.1291 32.5575C53.9236 33.1037 54.9946 33.0054 55.6764 32.3236L66.5 21.5" stroke="#2A2B6B" stroke-width="3" stroke-linecap="round"></path>
  <path d="M60 19.5L66.0461 19.9031C66.9126 19.9608 67.6428 20.5711 67.8534 21.4136L69 26" stroke="#011942" stroke-width="3" stroke-linecap="round"></path>
  <rect x="33" y="50.5" width="37" height="3" rx="1.5" fill="#2A2B6B"></rect>
  <rect x="33" y="56.5" width="37" height="3" rx="1.5" fill="#2A2B6B"></rect>
  <rect x="33" y="62.5" width="25" height="3" rx="1.5" fill="#2A2B6B"></rect>
</svg>
